<svg width="32" height="23" viewBox="0 0 32 23" fill="none" xmlns="http://www.w3.org/2000/svg">
<path d="M31.6525 11.1826C31.5197 10.9513 31.3417 10.7491 31.1291 10.588C30.9165 10.4269 30.6736 10.3103 30.415 10.2451C29.2759 9.95816 28.094 9.88191 26.9275 10.0201C27.2293 8.31442 27.1179 6.56128 26.6025 4.90757C26.4521 4.43717 26.132 4.03961 25.7045 3.79236C25.277 3.5451 24.7728 3.46586 24.29 3.57007C23.1285 3.82732 22.0204 4.28409 21.015 4.92007C20.2135 3.23178 19.0225 1.758 17.54 0.620071C17.1947 0.358487 16.7733 0.216919 16.34 0.216919C15.9068 0.216919 15.4854 0.358487 15.14 0.620071C13.6575 1.758 12.4665 3.23178 11.665 4.92007C10.6596 4.28409 9.55154 3.82732 8.39002 3.57007C7.90729 3.46586 7.40305 3.5451 6.97555 3.79236C6.54805 4.03961 6.22791 4.43717 6.07752 4.90757C5.56218 6.56128 5.45074 8.31442 5.75252 10.0201C4.58602 9.88191 3.4041 9.95816 2.26502 10.2451C2.00667 10.3102 1.76405 10.4265 1.55156 10.5872C1.33908 10.748 1.16108 10.9498 1.02815 11.1807C0.895214 11.4115 0.810057 11.6668 0.777739 11.9313C0.74542 12.1957 0.766602 12.464 0.840023 12.7201C1.27752 14.2951 2.62752 17.3076 6.72752 19.6701C10.8275 22.0326 14.4025 22.0201 16.3275 22.0201H16.3525C18.2775 22.0201 21.8775 22.0201 25.9525 19.6701C30.0275 17.3201 31.4025 14.2951 31.84 12.7201C31.9126 12.4642 31.9333 12.1964 31.9012 11.9324C31.869 11.6684 31.7844 11.4135 31.6525 11.1826ZM16.34 2.22007C17.54 3.12007 20.34 5.77007 20.34 11.0201C20.34 16.2701 17.54 18.9201 16.34 19.8201C15.14 18.9201 12.34 16.2701 12.34 11.0201C12.34 5.77007 15.14 3.12007 16.34 2.22007ZM2.75252 12.1826C3.52752 11.9826 4.74002 11.8326 6.30252 12.1076C6.61982 13.0161 7.02596 13.8912 7.51502 14.7201C8.58689 16.572 9.9942 18.2083 11.665 19.5451C10.2843 19.192 8.95923 18.6494 7.72752 17.9326C4.25252 15.9201 3.12752 13.4576 2.75252 12.1826ZM24.9525 17.9326C23.7208 18.6494 22.3957 19.192 21.015 19.5451C22.6858 18.2083 24.0932 16.572 25.165 14.7201C25.6541 13.8912 26.0602 13.0161 26.3775 12.1076C27.5483 11.883 28.7529 11.9043 29.915 12.1701C29.5525 13.4576 28.4275 15.9201 24.9525 17.9326Z" fill="#8ACEC0"/>
</svg>
