<svg width="33" height="33" viewBox="0 0 33 33" fill="none" xmlns="http://www.w3.org/2000/svg">
<path d="M26.2175 11.8675L25.93 11.5925L29.0425 8.49249C29.202 8.2982 29.2835 8.05153 29.2711 7.80048C29.2588 7.54943 29.1535 7.31194 28.9758 7.1342C28.7981 6.95647 28.5606 6.8512 28.3095 6.83887C28.0585 6.82654 27.8118 6.90803 27.6175 7.06749L24.38 10.3175C22.026 8.66128 19.2169 7.77452 16.3386 7.77899C13.4603 7.78347 10.6539 8.67897 8.30502 10.3425L5.04252 7.06749C4.84823 6.90803 4.60156 6.82654 4.35051 6.83887C4.09946 6.8512 3.86197 6.95647 3.68423 7.1342C3.5065 7.31194 3.40123 7.54943 3.3889 7.80048C3.37657 8.05153 3.45806 8.2982 3.61752 8.49249L6.75502 11.6175C5.35591 12.9433 4.24188 14.5405 3.48105 16.3115C2.72021 18.0824 2.32856 19.99 2.33002 21.9175V24.78C2.33002 25.3104 2.54073 25.8191 2.91581 26.1942C3.29088 26.5693 3.79959 26.78 4.33002 26.78H28.33C28.8605 26.78 29.3692 26.5693 29.7442 26.1942C30.1193 25.8191 30.33 25.3104 30.33 24.78V21.78C30.3357 19.9376 29.975 18.1126 29.269 16.4108C28.563 14.7091 27.5257 13.1648 26.2175 11.8675ZM11.83 21.78C11.5333 21.78 11.2433 21.692 10.9967 21.5272C10.75 21.3624 10.5577 21.1281 10.4442 20.854C10.3307 20.5799 10.301 20.2783 10.3588 19.9874C10.4167 19.6964 10.5596 19.4291 10.7694 19.2193C10.9791 19.0096 11.2464 18.8667 11.5374 18.8088C11.8284 18.7509 12.13 18.7806 12.404 18.8942C12.6781 19.0077 12.9124 19.2 13.0772 19.4466C13.242 19.6933 13.33 19.9833 13.33 20.28C13.33 20.6778 13.172 21.0593 12.8907 21.3407C12.6094 21.622 12.2278 21.78 11.83 21.78ZM20.83 21.78C20.5333 21.78 20.2433 21.692 19.9967 21.5272C19.75 21.3624 19.5577 21.1281 19.4442 20.854C19.3307 20.5799 19.301 20.2783 19.3588 19.9874C19.4167 19.6964 19.5596 19.4291 19.7694 19.2193C19.9791 19.0096 20.2464 18.8667 20.5374 18.8088C20.8284 18.7509 21.13 18.7806 21.404 18.8942C21.6781 19.0077 21.9124 19.2 22.0772 19.4466C22.242 19.6933 22.33 19.9833 22.33 20.28C22.33 20.6778 22.172 21.0593 21.8907 21.3407C21.6094 21.622 21.2278 21.78 20.83 21.78Z" fill="#8ACEC0"/>
</svg>
