<svg width="33" height="33" viewBox="0 0 33 33" fill="none" xmlns="http://www.w3.org/2000/svg">
<path d="M27.3775 5.3075C26.1263 4.06024 24.4316 3.35986 22.665 3.35986C20.8983 3.35986 19.2037 4.06024 17.9525 5.3075L5.95247 17.3075C4.70264 18.5573 4.00049 20.2525 4.00049 22.02C4.00049 23.7875 4.70264 25.4827 5.95247 26.7325C7.2023 27.9823 8.89744 28.6845 10.665 28.6845C12.4325 28.6845 14.1276 27.9823 15.3775 26.7325L27.3775 14.7325C28.6217 13.4797 29.32 11.7857 29.32 10.02C29.32 8.25433 28.6217 6.5603 27.3775 5.3075ZM25.9525 13.3075L20.665 18.6075L14.0775 12.02L19.3775 6.7325C19.8067 6.29636 20.3184 5.94998 20.8828 5.71355C21.4472 5.47711 22.053 5.35535 22.665 5.35535C23.2769 5.35535 23.8827 5.47711 24.4471 5.71355C25.0115 5.94998 25.5232 6.29636 25.9525 6.7325C26.3856 7.16343 26.7293 7.67571 26.9638 8.23988C27.1983 8.80406 27.3191 9.40902 27.3191 10.02C27.3191 10.631 27.1983 11.2359 26.9638 11.8001C26.7293 12.3643 26.3856 12.8766 25.9525 13.3075ZM24.44 10.3825C24.5325 10.4761 24.6053 10.5873 24.6542 10.7095C24.7032 10.8317 24.7272 10.9624 24.7248 11.094C24.7225 11.2256 24.6939 11.3554 24.6407 11.4758C24.5875 11.5962 24.5107 11.7047 24.415 11.795L21.365 14.745C21.2713 14.8375 21.1602 14.9104 21.038 14.9593C20.9158 15.0082 20.7851 15.0322 20.6535 15.0299C20.5219 15.0275 20.3921 14.9989 20.2717 14.9457C20.1513 14.8925 20.0428 14.8158 19.9525 14.72C19.86 14.6264 19.7871 14.5152 19.7382 14.393C19.6893 14.2708 19.6653 14.1401 19.6676 14.0085C19.6699 13.8769 19.6985 13.7471 19.7518 13.6267C19.805 13.5063 19.8817 13.3978 19.9775 13.3075L23.0275 10.3575C23.2182 10.1738 23.4741 10.0732 23.7389 10.0779C24.0037 10.0826 24.2558 10.1921 24.44 10.3825Z" fill="#8ACEC0"/>
</svg>
