<svg width="28" height="24" viewBox="0 0 28 24" fill="none" xmlns="http://www.w3.org/2000/svg">
<path d="M22.7674 6.40499C22.044 4.6778 20.8263 3.20291 19.2673 2.16563C17.7083 1.12835 15.8775 0.574951 14.0049 0.574951C12.1323 0.574951 10.3015 1.12835 8.74253 2.16563C7.18351 3.20291 5.96581 4.6778 5.24241 6.40499C3.6859 7.12629 2.36683 8.27571 1.43937 9.71892C0.511908 11.1621 0.0143741 12.8395 0.00491249 14.555C-0.00758751 19.405 3.92991 23.455 8.76741 23.58C10.2353 23.6183 11.6902 23.2965 13.0049 22.6425V18.1925L7.55491 15.48C7.31622 15.3606 7.13471 15.1514 7.05032 14.8982C7.00853 14.7728 6.99185 14.6405 7.00121 14.5087C7.01058 14.3769 7.04582 14.2482 7.10491 14.13C7.16401 14.0118 7.2458 13.9064 7.34563 13.8198C7.44545 13.7333 7.56136 13.6672 7.68671 13.6254C7.93989 13.541 8.21622 13.5606 8.45491 13.68L13.0049 15.9675V9.57999C13.0049 9.31478 13.1103 9.06042 13.2978 8.87289C13.4853 8.68535 13.7397 8.57999 14.0049 8.57999C14.2701 8.57999 14.5245 8.68535 14.712 8.87289C14.8996 9.06042 15.0049 9.31478 15.0049 9.57999V12.9675L19.5549 10.68C19.7936 10.5606 20.0699 10.541 20.3231 10.6254C20.5763 10.7098 20.7856 10.8913 20.9049 11.13C21.0243 11.3687 21.0439 11.645 20.9595 11.8982C20.8751 12.1514 20.6936 12.3606 20.4549 12.48L15.0049 15.1925V22.6425C16.2481 23.2592 17.6171 23.5801 19.0049 23.58H19.2424C24.0799 23.455 28.0174 19.405 28.0049 14.555C27.9955 12.8395 27.4979 11.1621 26.5705 9.71892C25.643 8.27571 24.3239 7.12629 22.7674 6.40499Z" fill="#8ACEC0"/>
</svg>
