<svg width="26" height="25" viewBox="0 0 26 25" fill="none" xmlns="http://www.w3.org/2000/svg">
<path d="M25.54 21.03L20.365 1.70502C20.2273 1.19286 19.8919 0.756344 19.4324 0.491461C18.973 0.226577 18.4272 0.155017 17.915 0.292517L14.0525 1.33002L13.9275 1.36752C13.7411 1.12311 13.501 0.924922 13.2257 0.788348C12.9504 0.651774 12.6473 0.580486 12.34 0.580017H8.33997C7.98809 0.580963 7.64285 0.675904 7.33997 0.855017C7.03708 0.675904 6.69185 0.580963 6.33997 0.580017H2.33997C1.80953 0.580017 1.30082 0.790731 0.925752 1.1658C0.550679 1.54088 0.339966 2.04958 0.339966 2.58002V22.58C0.339966 23.1105 0.550679 23.6192 0.925752 23.9942C1.30082 24.3693 1.80953 24.58 2.33997 24.58H6.33997C6.69185 24.5791 7.03708 24.4841 7.33997 24.305C7.64285 24.4841 7.98809 24.5791 8.33997 24.58H12.34C12.8704 24.58 13.3791 24.3693 13.7542 23.9942C14.1293 23.6192 14.34 23.1105 14.34 22.58V10.13L17.815 23.0925C17.9282 23.5197 18.1797 23.8973 18.5303 24.1664C18.8808 24.4355 19.3106 24.581 19.7525 24.58C19.925 24.577 20.0968 24.5561 20.265 24.5175L24.1275 23.48C24.6396 23.3424 25.0761 23.0069 25.341 22.5475C25.6059 22.0881 25.6775 21.5422 25.54 21.03ZM18.4275 2.23002L19.215 5.11752L15.3525 6.15502L14.565 3.26752L18.4275 2.23002ZM12.34 2.58002V17.58H8.33997V2.58002H12.34ZM6.33997 2.58002V5.58002H2.33997V2.58002H6.33997ZM12.34 22.58H8.33997V19.58H12.34V22.58ZM23.615 21.5425L19.7525 22.58L18.965 19.68L22.84 18.6425L23.615 21.5425Z" fill="#8ACEC0"/>
</svg>
