<svg width="33" height="32" viewBox="0 0 33 32" fill="none" xmlns="http://www.w3.org/2000/svg">
<path d="M30.98 26H29.98V13C29.98 12.4696 29.7693 11.9609 29.3942 11.5858C29.0192 11.2107 28.5104 11 27.98 11H19.98V5C19.98 4.46957 19.7693 3.96086 19.3942 3.58579C19.0192 3.21071 18.5104 3 17.98 3H5.98001C5.44958 3 4.94087 3.21071 4.5658 3.58579C4.19072 3.96086 3.98001 4.46957 3.98001 5V26H2.98001C2.71479 26 2.46044 26.1054 2.2729 26.2929C2.08537 26.4804 1.98001 26.7348 1.98001 27C1.98001 27.2652 2.08537 27.5196 2.2729 27.7071C2.46044 27.8946 2.71479 28 2.98001 28H30.98C31.2452 28 31.4996 27.8946 31.6871 27.7071C31.8747 27.5196 31.98 27.2652 31.98 27C31.98 26.7348 31.8747 26.4804 31.6871 26.2929C31.4996 26.1054 31.2452 26 30.98 26ZM15.98 17C15.98 17.2652 15.8747 17.5196 15.6871 17.7071C15.4996 17.8946 15.2452 18 14.98 18H10.98C10.7148 18 10.4604 17.8946 10.2729 17.7071C10.0854 17.5196 9.98001 17.2652 9.98001 17C9.98001 16.7348 10.0854 16.4804 10.2729 16.2929C10.4604 16.1054 10.7148 16 10.98 16H14.98C15.2452 16 15.4996 16.1054 15.6871 16.2929C15.8747 16.4804 15.98 16.7348 15.98 17ZM8.98001 8H12.98C13.2452 8 13.4996 8.10536 13.6871 8.29289C13.8747 8.48043 13.98 8.73478 13.98 9C13.98 9.26522 13.8747 9.51957 13.6871 9.70711C13.4996 9.89464 13.2452 10 12.98 10H8.98001C8.71479 10 8.46044 9.89464 8.2729 9.70711C8.08537 9.51957 7.98001 9.26522 7.98001 9C7.98001 8.73478 8.08537 8.48043 8.2729 8.29289C8.46044 8.10536 8.71479 8 8.98001 8ZM8.98001 21H12.98C13.2452 21 13.4996 21.1054 13.6871 21.2929C13.8747 21.4804 13.98 21.7348 13.98 22C13.98 22.2652 13.8747 22.5196 13.6871 22.7071C13.4996 22.8946 13.2452 23 12.98 23H8.98001C8.71479 23 8.46044 22.8946 8.2729 22.7071C8.08537 22.5196 7.98001 22.2652 7.98001 22C7.98001 21.7348 8.08537 21.4804 8.2729 21.2929C8.46044 21.1054 8.71479 21 8.98001 21ZM19.98 13H27.98V26H19.98V13Z" fill="#8ACEC0"/>
<path d="M24.98 21H22.98C22.7148 21 22.4604 21.1054 22.2729 21.2929C22.0854 21.4804 21.98 21.7348 21.98 22C21.98 22.2652 22.0854 22.5196 22.2729 22.7071C22.4604 22.8946 22.7148 23 22.98 23H24.98C25.2452 23 25.4996 22.8946 25.6871 22.7071C25.8747 22.5196 25.98 22.2652 25.98 22C25.98 21.7348 25.8747 21.4804 25.6871 21.2929C25.4996 21.1054 25.2452 21 24.98 21Z" fill="#8ACEC0"/>
<path d="M22.98 18H24.98C25.2452 18 25.4996 17.8946 25.6871 17.7071C25.8747 17.5196 25.98 17.2652 25.98 17C25.98 16.7348 25.8747 16.4804 25.6871 16.2929C25.4996 16.1054 25.2452 16 24.98 16H22.98C22.7148 16 22.4604 16.1054 22.2729 16.2929C22.0854 16.4804 21.98 16.7348 21.98 17C21.98 17.2652 22.0854 17.5196 22.2729 17.7071C22.4604 17.8946 22.7148 18 22.98 18Z" fill="#8ACEC0"/>
</svg>
