<svg width="24" height="31" viewBox="0 0 24 31" fill="none" xmlns="http://www.w3.org/2000/svg">
<path d="M23.7924 15.1875L12.7924 1.18752C12.6988 1.068 12.5793 0.971334 12.4429 0.904857C12.3064 0.83838 12.1567 0.803833 12.0049 0.803833C11.8531 0.803833 11.7033 0.83838 11.5669 0.904857C11.4304 0.971334 11.3109 1.068 11.2174 1.18752L0.21738 15.1875C0.0773525 15.3609 0.000976562 15.5771 0.000976562 15.8C0.000976562 16.0229 0.0773525 16.2391 0.21738 16.4125L11.2174 30.4125C11.3109 30.532 11.4304 30.6287 11.5669 30.6952C11.7033 30.7617 11.8531 30.7962 12.0049 30.7962C12.1567 30.7962 12.3064 30.7617 12.4429 30.6952C12.5793 30.6287 12.6988 30.532 12.7924 30.4125L23.7924 16.4125C23.9324 16.2391 24.0088 16.0229 24.0088 15.8C24.0088 15.5771 23.9324 15.3609 23.7924 15.1875ZM13.0049 19.25V4.68752L21.4299 15.4125L13.0049 19.25ZM11.0049 19.25L2.57988 15.4125L11.0049 4.68752V19.25ZM11.0049 21.45V26.9125L4.32988 18.4125L11.0049 21.45Z" fill="#8ACEC0"/>
</svg>
