<svg width="31" height="27" viewBox="0 0 31 27" fill="none" xmlns="http://www.w3.org/2000/svg">
<path d="M30.665 14.3001C30.6651 12.9753 30.2893 11.6778 29.5812 10.5582C28.8731 9.43854 27.8619 8.54282 26.665 7.97508V6.80008C26.6641 5.51149 26.2484 4.25743 25.4794 3.22347C24.7104 2.18951 23.6289 1.4306 22.3951 1.05904C21.1612 0.687484 19.8405 0.723024 18.6284 1.1604C17.4164 1.59778 16.3773 2.41376 15.665 3.48758C14.9527 2.41376 13.9136 1.59778 12.7016 1.1604C11.4895 0.723024 10.1688 0.687484 8.93492 1.05904C7.70107 1.4306 6.61962 2.18951 5.85061 3.22347C5.08159 4.25743 4.66589 5.51149 4.665 6.80008V7.97508C3.46792 8.54268 2.45649 9.43835 1.74826 10.558C1.04003 11.6776 0.664063 12.9752 0.664062 14.3001C0.664063 15.6249 1.04003 16.9225 1.74826 18.0422C2.45649 19.1618 3.46792 20.0575 4.665 20.6251V20.8001C4.66589 22.0887 5.08159 23.3427 5.85061 24.3767C6.61962 25.4106 7.70107 26.1696 8.93492 26.5411C10.1688 26.9127 11.4895 26.8771 12.7016 26.4398C13.9136 26.0024 14.9527 25.1864 15.665 24.1126C16.3773 25.1864 17.4164 26.0024 18.6284 26.4398C19.8405 26.8771 21.1612 26.9127 22.3951 26.5411C23.6289 26.1696 24.7104 25.4106 25.4794 24.3767C26.2484 23.3427 26.6641 22.0887 26.665 20.8001V20.6251C27.861 20.0561 28.8714 19.1601 29.5793 18.0408C30.2872 16.9214 30.6636 15.6245 30.665 14.3001ZM10.665 24.8001C9.67813 24.7995 8.7263 24.4341 7.99253 23.7742C7.25877 23.1143 6.79486 22.2064 6.69 21.2251C7.0125 21.2759 7.33853 21.3009 7.665 21.3001H8.665C8.93022 21.3001 9.18457 21.1947 9.37211 21.0072C9.55964 20.8196 9.665 20.5653 9.665 20.3001C9.665 20.0349 9.55964 19.7805 9.37211 19.593C9.18457 19.4054 8.93022 19.3001 8.665 19.3001H7.665C6.48665 19.2981 5.34687 18.88 4.44675 18.1195C3.54662 17.3591 2.944 16.3051 2.74519 15.1437C2.54638 13.9822 2.76416 12.7879 3.36012 11.7713C3.95607 10.7548 4.8919 9.98138 6.0025 9.58758C6.19683 9.51599 6.36454 9.38653 6.483 9.21666C6.60146 9.04679 6.66498 8.84467 6.665 8.63758V6.80008C6.665 5.73921 7.08643 4.7218 7.83657 3.97165C8.58672 3.2215 9.60413 2.80008 10.665 2.80008C11.7259 2.80008 12.7433 3.2215 13.4934 3.97165C14.2436 4.7218 14.665 5.73921 14.665 6.80008V16.3376C13.5702 15.344 12.1435 14.7956 10.665 14.8001C10.3998 14.8001 10.1454 14.9054 9.95789 15.093C9.77036 15.2805 9.665 15.5349 9.665 15.8001C9.665 16.0653 9.77036 16.3196 9.95789 16.5072C10.1454 16.6947 10.3998 16.8001 10.665 16.8001C11.7259 16.8001 12.7433 17.2215 13.4934 17.9717C14.2436 18.7218 14.665 19.7392 14.665 20.8001C14.665 21.8609 14.2436 22.8784 13.4934 23.6285C12.7433 24.3786 11.7259 24.8001 10.665 24.8001ZM23.665 19.3001H22.665C22.3998 19.3001 22.1454 19.4054 21.9579 19.593C21.7704 19.7805 21.665 20.0349 21.665 20.3001C21.665 20.5653 21.7704 20.8196 21.9579 21.0072C22.1454 21.1947 22.3998 21.3001 22.665 21.3001H23.665C23.9915 21.3009 24.3175 21.2759 24.64 21.2251C24.5579 21.9938 24.2547 22.7223 23.7672 23.3223C23.2797 23.9223 22.6288 24.3682 21.8932 24.6061C21.1576 24.8439 20.3688 24.8635 19.6223 24.6624C18.8758 24.4614 18.2036 24.0483 17.687 23.4731C17.1703 22.898 16.8314 22.1855 16.7113 21.4218C16.5911 20.6581 16.6948 19.8759 17.0099 19.1699C17.325 18.4639 17.8379 17.8644 18.4865 17.4438C19.1352 17.0232 19.8919 16.7996 20.665 16.8001C20.9302 16.8001 21.1846 16.6947 21.3721 16.5072C21.5596 16.3196 21.665 16.0653 21.665 15.8001C21.665 15.5349 21.5596 15.2805 21.3721 15.093C21.1846 14.9054 20.9302 14.8001 20.665 14.8001C19.1865 14.7956 17.7598 15.344 16.665 16.3376V6.80008C16.665 5.73921 17.0864 4.7218 17.8366 3.97165C18.5867 3.2215 19.6041 2.80008 20.665 2.80008C21.7259 2.80008 22.7433 3.2215 23.4934 3.97165C24.2436 4.7218 24.665 5.73921 24.665 6.80008V8.63758C24.665 8.84467 24.7285 9.04679 24.847 9.21666C24.9655 9.38653 25.1332 9.51599 25.3275 9.58758C26.4381 9.98138 27.3739 10.7548 27.9699 11.7713C28.5658 12.7879 28.7836 13.9822 28.5848 15.1437C28.386 16.3051 27.7834 17.3591 26.8833 18.1195C25.9831 18.88 24.8433 19.2981 23.665 19.3001ZM7.165 13.8001C6.89978 13.8001 6.64543 13.6947 6.45789 13.5072C6.27036 13.3196 6.165 13.0653 6.165 12.8001C6.165 12.5349 6.27036 12.2805 6.45789 12.093C6.64543 11.9054 6.89978 11.8001 7.165 11.8001C7.82703 11.7968 8.46101 11.5323 8.92914 11.0642C9.39727 10.5961 9.66171 9.9621 9.665 9.30008V8.30008C9.665 8.03486 9.77036 7.78051 9.95789 7.59297C10.1454 7.40543 10.3998 7.30008 10.665 7.30008C10.9302 7.30008 11.1846 7.40543 11.3721 7.59297C11.5596 7.78051 11.665 8.03486 11.665 8.30008V9.30008C11.665 10.4936 11.1909 11.6381 10.347 12.4821C9.50307 13.326 8.35847 13.8001 7.165 13.8001ZM25.165 12.8001C25.165 13.0653 25.0596 13.3196 24.8721 13.5072C24.6846 13.6947 24.4302 13.8001 24.165 13.8001C22.9715 13.8001 21.8269 13.326 20.983 12.4821C20.1391 11.6381 19.665 10.4936 19.665 9.30008V8.30008C19.665 8.03486 19.7704 7.78051 19.9579 7.59297C20.1454 7.40543 20.3998 7.30008 20.665 7.30008C20.9302 7.30008 21.1846 7.40543 21.3721 7.59297C21.5596 7.78051 21.665 8.03486 21.665 8.30008V9.30008C21.6683 9.9621 21.9327 10.5961 22.4009 11.0642C22.869 11.5323 23.503 11.7968 24.165 11.8001C24.4302 11.8001 24.6846 11.9054 24.8721 12.093C25.0596 12.2805 25.165 12.5349 25.165 12.8001Z" fill="#8ACEC0"/>
</svg>
