<svg width="22" height="31" viewBox="0 0 22 31" fill="none" xmlns="http://www.w3.org/2000/svg">
<path d="M21.975 14.6549C21.9379 14.4937 21.8614 14.3442 21.7523 14.2199C21.6432 14.0955 21.505 14.0002 21.35 13.9424L14.15 11.2424L15.975 2.07988C16.017 1.86764 15.9899 1.64754 15.8977 1.45183C15.8054 1.25613 15.6529 1.09511 15.4625 0.992382C15.2702 0.890098 15.0495 0.854253 14.8348 0.890425C14.62 0.926597 14.4232 1.03276 14.275 1.19238L0.275029 16.1924C0.160314 16.3114 0.0773115 16.4573 0.0336325 16.6167C-0.0100465 16.7762 -0.0130046 16.944 0.0250289 17.1049C0.0641633 17.2652 0.141419 17.4137 0.250231 17.5377C0.359043 17.6618 0.496194 17.7577 0.650029 17.8174L7.85003 20.5174L6.02503 29.6799C5.98306 29.8921 6.01017 30.1122 6.1024 30.3079C6.19463 30.5036 6.34712 30.6647 6.53753 30.7674C6.68105 30.8398 6.83928 30.8783 7.00003 30.8799C7.13587 30.8805 7.27037 30.853 7.39512 30.7992C7.51986 30.7455 7.63218 30.6665 7.72503 30.5674L21.725 15.5674C21.8397 15.4484 21.9227 15.3025 21.9664 15.143C22.0101 14.9836 22.0131 14.8158 21.975 14.6549Z" fill="#8ACEC0"/>
</svg>
