<svg width="30" height="26" viewBox="0 0 30 26" fill="none" xmlns="http://www.w3.org/2000/svg">
<path d="M29.75 8.8375L22.75 0.837501C22.656 0.731287 22.5406 0.646266 22.4113 0.588078C22.282 0.529891 22.1417 0.499867 22 0.5H7.99995C7.85816 0.499867 7.71796 0.529891 7.58865 0.588078C7.45935 0.646266 7.34389 0.731287 7.24995 0.837501L0.249955 8.8375C0.0873215 9.02619 -4.4018e-05 9.26821 0.00456826 9.51728C0.00918054 9.76634 0.105447 10.005 0.274955 10.1875L14.275 25.1875C14.3684 25.2858 14.4808 25.3641 14.6055 25.4177C14.7301 25.4712 14.8643 25.4988 15 25.4988C15.1356 25.4988 15.2698 25.4712 15.3944 25.4177C15.5191 25.3641 15.6315 25.2858 15.725 25.1875L29.725 10.1875C29.8945 10.005 29.9907 9.76634 29.9953 9.51728C30 9.26821 29.9126 9.02619 29.75 8.8375ZM26.8 8.5H21.625L17.025 2.5H21.55L26.8 8.5ZM8.18745 10.5L12.0125 19.825L3.29995 10.5H8.18745ZM21.8125 10.5H26.7L17.9875 19.825L21.8125 10.5ZM8.44995 2.5H12.975L8.37495 8.5H3.19995L8.44995 2.5Z" fill="#8ACEC0"/>
</svg>
