<svg width="32" height="23" viewBox="0 0 32 23" fill="none" xmlns="http://www.w3.org/2000/svg">
<path d="M14.975 21.69C14.9197 21.9071 14.794 22.0997 14.6175 22.2376C14.4411 22.3756 14.2239 22.4512 14 22.4525C13.9193 22.4523 13.8392 22.4396 13.7625 22.415L9.98746 21.4775C9.68126 21.4002 9.39825 21.2501 9.16246 21.04L6.34996 18.59C6.25146 18.5047 6.17075 18.4008 6.11242 18.2842C6.05409 18.1677 6.01929 18.0408 6.01001 17.9108C6.00072 17.7808 6.01713 17.6502 6.0583 17.5265C6.09947 17.4029 6.1646 17.2885 6.24996 17.19C6.33532 17.0915 6.43924 17.0108 6.55579 16.9525C6.67234 16.8942 6.79924 16.8594 6.92925 16.8501C7.05925 16.8408 7.18981 16.8572 7.31347 16.8984C7.43712 16.9396 7.55147 17.0047 7.64996 17.09L10.475 19.54L14.2375 20.4775C14.4948 20.5426 14.7163 20.7062 14.8542 20.933C14.9921 21.1597 15.0355 21.4316 14.975 21.69ZM31.55 9.79004C31.4678 10.0418 31.3358 10.2744 31.1618 10.4742C30.9879 10.6739 30.7755 10.8366 30.5375 10.9525L27.625 12.415L25.7625 14.6025H25.7375C25.7375 14.615 25.725 14.615 25.725 14.6275H25.7125L21.1125 19.2275C20.7312 19.6002 20.2205 19.8107 19.6875 19.815C19.5272 19.8136 19.3677 19.7926 19.2125 19.7525L11.9625 17.965C11.6887 17.9012 11.4326 17.7774 11.2125 17.6025L4.46246 12.3275L1.46246 10.8275C0.983246 10.5847 0.619348 10.1624 0.449956 9.65254C0.369875 9.39993 0.340791 9.13393 0.364396 8.86999C0.388 8.60605 0.463822 8.34943 0.587456 8.11504L3.66246 2.22754C3.90546 1.76423 4.31934 1.41375 4.81636 1.25041C5.31339 1.08707 5.85448 1.1237 6.32496 1.35254L9.12496 2.75254L15.2125 0.977539C15.6688 0.85319 16.1539 0.888472 16.5875 1.07754L20.7125 2.95254H22.7625L25.675 1.49004C26.1434 1.25698 26.6845 1.21676 27.1822 1.378C27.6799 1.53924 28.0947 1.88909 28.3375 2.35254L31.4125 8.24004C31.5365 8.47657 31.6124 8.73529 31.636 9.0013C31.6596 9.26732 31.6304 9.53538 31.55 9.79004ZM23.4625 14.065L19.5125 11.19L18.5 11.9525C17.6329 12.5978 16.5808 12.9463 15.5 12.9463C14.4191 12.9463 13.3671 12.5978 12.5 11.9525L11.825 11.44C11.5944 11.2693 11.4035 11.0506 11.2654 10.799C11.1274 10.5474 11.0454 10.269 11.0252 9.98271C11.0051 9.69646 11.0471 9.40924 11.1485 9.14078C11.2498 8.87232 11.4081 8.629 11.6125 8.42754L16.5 3.52754L16.725 3.34004L15.7625 2.90254L9.67496 4.67754L6.27496 11.2025L12.45 16.0275L19.6875 17.84L23.4625 14.065ZM25.8 11.4775L22.4 4.95254H17.9125L13.025 9.84004L13.7 10.3525C14.2216 10.7363 14.8523 10.9433 15.5 10.9433C16.1476 10.9433 16.7783 10.7363 17.3 10.3525L18.9 9.15254C19.0706 9.02383 19.2779 8.95318 19.4916 8.95093C19.7054 8.94868 19.9142 9.01495 20.0875 9.14004L24.8375 12.59L25.8 11.4775Z" fill="#8ACEC0"/>
</svg>
