<svg width="26" height="27" viewBox="0 0 26 27" fill="none" xmlns="http://www.w3.org/2000/svg">
<path d="M24.9375 18.65C24.9636 18.6024 24.9846 18.5521 25 18.5C26.1387 15.7678 26.311 12.7287 25.4882 9.8853C24.6654 7.0419 22.8969 4.56443 20.475 2.86251L20.325 2.77501C18.1712 1.2901 15.6161 0.496543 13 0.500011C10.6267 0.500859 8.29896 1.15137 6.26908 2.38101C4.23919 3.61066 2.58465 5.37251 1.48483 7.47556C0.38501 9.57862 -0.118123 11.9426 0.0299806 14.3113C0.178084 16.6799 0.971773 18.9628 2.325 20.9125V20.9375C2.35532 20.9855 2.38873 21.0314 2.425 21.075C3.44052 22.4906 4.73024 23.6877 6.21751 24.5951C7.70478 25.5024 9.35927 26.1016 11.0827 26.357C12.8061 26.6123 14.5632 26.5187 16.2497 26.0816C17.9362 25.6445 19.5176 24.8728 20.9 23.8125L21.075 23.675C22.7526 22.3396 24.0785 20.6146 24.9375 18.65ZM4.6875 20.7L5.175 20.4C5.46906 20.2244 5.71241 19.9754 5.88116 19.6773C6.0499 19.3793 6.13824 19.0425 6.1375 18.7L6.1625 14.475C6.16623 14.2843 6.22245 14.0983 6.325 13.9375L8.075 11.1875C8.14807 11.0731 8.24369 10.9747 8.35602 10.8984C8.46836 10.8221 8.59506 10.7695 8.72839 10.7437C8.86173 10.718 8.9989 10.7197 9.13156 10.7487C9.26422 10.7777 9.38958 10.8335 9.5 10.9125L11.1 12.075C11.521 12.3729 12.0383 12.5022 12.55 12.4375L16.475 11.9C16.961 11.8378 17.4065 11.5973 17.725 11.225L20.4875 8.02501C20.6573 7.83546 20.7877 7.61413 20.8714 7.37382C20.9551 7.13352 20.9903 6.87901 20.975 6.62501L20.95 5.90001C22.9102 7.94424 24.0032 10.6678 24 13.5C24.0012 14.4887 23.8666 15.4729 23.6 16.425L21.6125 14.6C21.3316 14.3446 20.9842 14.1739 20.6104 14.1075C20.2366 14.0412 19.8516 14.0819 19.5 14.225L15.6875 15.8125C15.3696 15.9455 15.0912 16.1578 14.8789 16.4292C14.6666 16.7006 14.5275 17.022 14.475 17.3625L14.175 19.3875C14.106 19.8761 14.2178 20.3732 14.4894 20.7852C14.761 21.1972 15.1737 21.4958 15.65 21.625L18.3375 22.325L18.8375 22.825C16.6131 24.2166 13.9645 24.7673 11.3698 24.3776C8.77502 23.9879 6.40502 22.6836 4.6875 20.7Z" fill="#8ACEC0"/>
</svg>
