<svg width="26" height="28" viewBox="0 0 26 28" fill="none" xmlns="http://www.w3.org/2000/svg">
<path d="M22 5.87988H14V1.87988C14 1.61467 13.8946 1.36031 13.7071 1.17278C13.5196 0.98524 13.2652 0.879883 13 0.879883C12.7348 0.879883 12.4804 0.98524 12.2929 1.17278C12.1054 1.36031 12 1.61467 12 1.87988V5.87988H4C2.94015 5.88318 1.92465 6.30567 1.17521 7.0551C0.425783 7.80453 0.00329661 8.82003 0 9.87988V23.8799C0.00329661 24.9397 0.425783 25.9552 1.17521 26.7047C1.92465 27.4541 2.94015 27.8766 4 27.8799H22C23.0599 27.8766 24.0754 27.4541 24.8248 26.7047C25.5742 25.9552 25.9967 24.9397 26 23.8799V9.87988C25.9967 8.82003 25.5742 7.80453 24.8248 7.0551C24.0754 6.30567 23.0599 5.88318 22 5.87988ZM6 13.3799C6 13.0832 6.08797 12.7932 6.2528 12.5465C6.41762 12.2999 6.65189 12.1076 6.92597 11.9941C7.20006 11.8805 7.50166 11.8508 7.79264 11.9087C8.08361 11.9666 8.35088 12.1094 8.56066 12.3192C8.77044 12.529 8.9133 12.7963 8.97118 13.0872C9.02906 13.3782 8.99935 13.6798 8.88582 13.9539C8.77229 14.228 8.58003 14.4623 8.33335 14.6271C8.08668 14.7919 7.79667 14.8799 7.5 14.8799C7.10218 14.8799 6.72064 14.7218 6.43934 14.4405C6.15804 14.1592 6 13.7777 6 13.3799ZM9.5 22.8799H8.5C7.96957 22.8799 7.46086 22.6692 7.08579 22.2941C6.71071 21.919 6.5 21.4103 6.5 20.8799C6.5 20.3494 6.71071 19.8407 7.08579 19.4657C7.46086 19.0906 7.96957 18.8799 8.5 18.8799H9.5V22.8799ZM14.5 22.8799H11.5V18.8799H14.5V22.8799ZM17.5 22.8799H16.5V18.8799H17.5C18.0304 18.8799 18.5391 19.0906 18.9142 19.4657C19.2893 19.8407 19.5 20.3494 19.5 20.8799C19.5 21.4103 19.2893 21.919 18.9142 22.2941C18.5391 22.6692 18.0304 22.8799 17.5 22.8799ZM18.5 14.8799C18.2033 14.8799 17.9133 14.7919 17.6666 14.6271C17.42 14.4623 17.2277 14.228 17.1142 13.9539C17.0007 13.6798 16.9709 13.3782 17.0288 13.0872C17.0867 12.7963 17.2296 12.529 17.4393 12.3192C17.6491 12.1094 17.9164 11.9666 18.2074 11.9087C18.4983 11.8508 18.7999 11.8805 19.074 11.9941C19.3481 12.1076 19.5824 12.2999 19.7472 12.5465C19.912 12.7932 20 13.0832 20 13.3799C20 13.7777 19.842 14.1592 19.5607 14.4405C19.2794 14.7218 18.8978 14.8799 18.5 14.8799Z" fill="#8ACEC0"/>
</svg>
