<svg width="27" height="28" viewBox="0 0 27 28" fill="none" xmlns="http://www.w3.org/2000/svg">
<path d="M22.665 5.57996H14.665V1.57996C14.665 1.31474 14.5597 1.06039 14.3721 0.872849C14.1846 0.685313 13.9303 0.579956 13.665 0.579956C13.3998 0.579956 13.1455 0.685313 12.9579 0.872849C12.7704 1.06039 12.665 1.31474 12.665 1.57996V5.57996H4.66504C3.60519 5.58325 2.58969 6.00574 1.84025 6.75517C1.09082 7.5046 0.668336 8.5201 0.665039 9.57996V23.58C0.668336 24.6398 1.09082 25.6553 1.84025 26.4047C2.58969 27.1542 3.60519 27.5767 4.66504 27.58H22.665C23.7249 27.5767 24.7404 27.1542 25.4898 26.4047C26.2393 25.6553 26.6617 24.6398 26.665 23.58V9.57996C26.6617 8.5201 26.2393 7.5046 25.4898 6.75517C24.7404 6.00574 23.7249 5.58325 22.665 5.57996ZM6.66504 13.08C6.66504 12.7833 6.75301 12.4933 6.91783 12.2466C7.08266 11.9999 7.31692 11.8077 7.59101 11.6941C7.8651 11.5806 8.1667 11.5509 8.45767 11.6088C8.74865 11.6667 9.01592 11.8095 9.2257 12.0193C9.43548 12.2291 9.57834 12.4963 9.63622 12.7873C9.69409 13.0783 9.66439 13.3799 9.55086 13.654C9.43733 13.9281 9.24507 14.1623 8.99839 14.3272C8.75172 14.492 8.46171 14.58 8.16504 14.58C7.76721 14.58 7.38568 14.4219 7.10438 14.1406C6.82307 13.8593 6.66504 13.4778 6.66504 13.08ZM10.165 22.58H9.16504C8.63461 22.58 8.1259 22.3692 7.75083 21.9942C7.37575 21.6191 7.16504 21.1104 7.16504 20.58C7.16504 20.0495 7.37575 19.5408 7.75083 19.1657C8.1259 18.7907 8.63461 18.58 9.16504 18.58H10.165V22.58ZM15.165 22.58H12.165V18.58H15.165V22.58ZM18.165 22.58H17.165V18.58H18.165C18.6955 18.58 19.2042 18.7907 19.5793 19.1657C19.9543 19.5408 20.165 20.0495 20.165 20.58C20.165 21.1104 19.9543 21.6191 19.5793 21.9942C19.2042 22.3692 18.6955 22.58 18.165 22.58ZM19.165 14.58C18.8684 14.58 18.5784 14.492 18.3317 14.3272C18.085 14.1623 17.8928 13.9281 17.7792 13.654C17.6657 13.3799 17.636 13.0783 17.6939 12.7873C17.7517 12.4963 17.8946 12.2291 18.1044 12.0193C18.3142 11.8095 18.5814 11.6667 18.8724 11.6088C19.1634 11.5509 19.465 11.5806 19.7391 11.6941C20.0132 11.8077 20.2474 11.9999 20.4122 12.2466C20.5771 12.4933 20.665 12.7833 20.665 13.08C20.665 13.4778 20.507 13.8593 20.2257 14.1406C19.9444 14.4219 19.5629 14.58 19.165 14.58Z" fill="#8ACEC0"/>
</svg>
