<svg width="47" height="47" viewBox="0 0 47 47" fill="none" xmlns="http://www.w3.org/2000/svg">
<path d="M31.5781 14.6875H15.4219C15.0163 14.6875 14.6875 15.0163 14.6875 15.4219V31.5781C14.6875 31.9837 15.0163 32.3125 15.4219 32.3125H31.5781C31.9837 32.3125 32.3125 31.9837 32.3125 31.5781V15.4219C32.3125 15.0163 31.9837 14.6875 31.5781 14.6875Z" fill="#084D36"/>
<path d="M42.5938 17.625C42.9833 17.625 43.3569 17.4703 43.6323 17.1948C43.9078 16.9194 44.0625 16.5458 44.0625 16.1562C44.0625 15.7667 43.9078 15.3931 43.6323 15.1177C43.3569 14.8422 42.9833 14.6875 42.5938 14.6875H41.125V11.75C41.1233 10.1924 40.5038 8.69903 39.4024 7.59763C38.301 6.49622 36.8076 5.8767 35.25 5.875H32.3125V4.40625C32.3125 4.01671 32.1578 3.64313 31.8823 3.36769C31.6069 3.09224 31.2333 2.9375 30.8438 2.9375C30.4542 2.9375 30.0806 3.09224 29.8052 3.36769C29.5297 3.64313 29.375 4.01671 29.375 4.40625V5.875H24.9688V4.40625C24.9688 4.01671 24.814 3.64313 24.5386 3.36769C24.2631 3.09224 23.8895 2.9375 23.5 2.9375C23.1105 2.9375 22.7369 3.09224 22.4614 3.36769C22.186 3.64313 22.0312 4.01671 22.0312 4.40625V5.875H17.625V4.40625C17.625 4.01671 17.4703 3.64313 17.1948 3.36769C16.9194 3.09224 16.5458 2.9375 16.1562 2.9375C15.7667 2.9375 15.3931 3.09224 15.1177 3.36769C14.8422 3.64313 14.6875 4.01671 14.6875 4.40625V5.875H11.75C10.1924 5.8767 8.69903 6.49622 7.59763 7.59763C6.49622 8.69903 5.8767 10.1924 5.875 11.75V14.6875H4.40625C4.01671 14.6875 3.64313 14.8422 3.36769 15.1177C3.09224 15.3931 2.9375 15.7667 2.9375 16.1562C2.9375 16.5458 3.09224 16.9194 3.36769 17.1948C3.64313 17.4703 4.01671 17.625 4.40625 17.625H5.875V22.0312H4.40625C4.01671 22.0312 3.64313 22.186 3.36769 22.4614C3.09224 22.7369 2.9375 23.1105 2.9375 23.5C2.9375 23.8895 3.09224 24.2631 3.36769 24.5386C3.64313 24.814 4.01671 24.9688 4.40625 24.9688H5.875V29.375H4.40625C4.01671 29.375 3.64313 29.5297 3.36769 29.8052C3.09224 30.0806 2.9375 30.4542 2.9375 30.8438C2.9375 31.2333 3.09224 31.6069 3.36769 31.8823C3.64313 32.1578 4.01671 32.3125 4.40625 32.3125H5.875V35.25C5.8767 36.8076 6.49622 38.301 7.59763 39.4024C8.69903 40.5038 10.1924 41.1233 11.75 41.125H14.6875V42.5938C14.6875 42.9833 14.8422 43.3569 15.1177 43.6323C15.3931 43.9078 15.7667 44.0625 16.1562 44.0625C16.5458 44.0625 16.9194 43.9078 17.1948 43.6323C17.4703 43.3569 17.625 42.9833 17.625 42.5938V41.125H22.0312V42.5938C22.0312 42.9833 22.186 43.3569 22.4614 43.6323C22.7369 43.9078 23.1105 44.0625 23.5 44.0625C23.8895 44.0625 24.2631 43.9078 24.5386 43.6323C24.814 43.3569 24.9688 42.9833 24.9688 42.5938V41.125H29.375V42.5938C29.375 42.9833 29.5297 43.3569 29.8052 43.6323C30.0806 43.9078 30.4542 44.0625 30.8438 44.0625C31.2333 44.0625 31.6069 43.9078 31.8823 43.6323C32.1578 43.3569 32.3125 42.9833 32.3125 42.5938V41.125H35.25C36.8076 41.1233 38.301 40.5038 39.4024 39.4024C40.5038 38.301 41.1233 36.8076 41.125 35.25V32.3125H42.5938C42.9833 32.3125 43.3569 32.1578 43.6323 31.8823C43.9078 31.6069 44.0625 31.2333 44.0625 30.8438C44.0625 30.4542 43.9078 30.0806 43.6323 29.8052C43.3569 29.5297 42.9833 29.375 42.5938 29.375H41.125V24.9688H42.5938C42.9833 24.9688 43.3569 24.814 43.6323 24.5386C43.9078 24.2631 44.0625 23.8895 44.0625 23.5C44.0625 23.1105 43.9078 22.7369 43.6323 22.4614C43.3569 22.186 42.9833 22.0312 42.5938 22.0312H41.125V17.625H42.5938ZM35.25 32.3125C35.25 33.0916 34.9405 33.8387 34.3896 34.3896C33.8387 34.9405 33.0916 35.25 32.3125 35.25H14.6875C13.9084 35.25 13.1613 34.9405 12.6104 34.3896C12.0595 33.8387 11.75 33.0916 11.75 32.3125V14.6875C11.75 13.9084 12.0595 13.1613 12.6104 12.6104C13.1613 12.0595 13.9084 11.75 14.6875 11.75H32.3125C33.0916 11.75 33.8387 12.0595 34.3896 12.6104C34.9405 13.1613 35.25 13.9084 35.25 14.6875V32.3125Z" fill="#084D36"/>
</svg>
