<svg width="52" height="52" viewBox="0 0 52 52" fill="none" xmlns="http://www.w3.org/2000/svg">
<path d="M19.5003 47.667V45.5003C19.5003 44.3447 19.9336 43.3784 20.8003 42.6013C21.6669 41.8242 22.678 41.3461 23.8336 41.167V25.6753C23.0391 25.3864 22.3444 24.9711 21.7493 24.4295C21.1541 23.8878 20.6573 23.2559 20.2586 22.5336L16.1419 23.617C14.8419 23.9059 13.6048 23.7975 12.4304 23.292C11.2561 22.7864 10.5071 21.9197 10.1836 20.692L19.6086 18.3086C19.8975 16.8281 20.5836 15.6003 21.6669 14.6253C22.7503 13.6503 24.0503 13.1086 25.5669 13.0003L26.8669 8.1253C27.228 6.86141 27.9235 5.85969 28.9534 5.12013C29.9833 4.38058 31.1295 4.15452 32.3919 4.44197L29.6836 14.192C30.5864 14.7697 31.2819 15.5281 31.7701 16.467C32.2583 17.4059 32.5017 18.417 32.5003 19.5003C32.5003 19.9697 32.4461 20.4305 32.3378 20.8826C32.2294 21.3347 32.103 21.7767 31.9586 22.2086L34.8836 25.242C35.7864 26.1809 36.3194 27.2822 36.4826 28.5461C36.6458 29.81 36.2934 30.8753 35.4253 31.742L28.9253 25.242C28.8169 25.3503 28.6999 25.4319 28.5743 25.4868C28.4486 25.5417 28.3128 25.6045 28.1669 25.6753V41.167C29.3225 41.3475 30.3336 41.8264 31.2003 42.6035C32.0669 43.3806 32.5003 44.3462 32.5003 45.5003V47.667H19.5003ZM26.0003 22.7503C26.903 22.7503 27.6708 22.4347 28.3034 21.8035C28.9361 21.1722 29.2517 20.4045 29.2503 19.5003C29.2488 18.5961 28.9332 17.8291 28.3034 17.1993C27.6736 16.5695 26.9059 16.2532 26.0003 16.2503C25.0946 16.2474 24.3276 16.5637 23.6993 17.1993C23.0709 17.8349 22.7546 18.6019 22.7503 19.5003C22.7459 20.3987 23.0623 21.1665 23.6993 21.8035C24.3363 22.4405 25.1033 22.7561 26.0003 22.7503Z" fill="#084D36"/>
</svg>
