<svg width="52" height="52" viewBox="0 0 52 52" fill="none" xmlns="http://www.w3.org/2000/svg">
<path d="M41.1667 45.5H42.25V46.5833H41.1667V45.5Z" fill="#084D36"/>
<path d="M47.6667 44.417H48.75V45.5003H47.6667V44.417Z" fill="#084D36"/>
<path d="M34.6667 42.792H35.75V43.8753H34.6667V42.792Z" fill="#084D36"/>
<path d="M16.7917 42.792H17.875V43.8753H16.7917V42.792Z" fill="#084D36"/>
<path d="M8.66667 43.875H9.75V44.9583H8.66667V43.875Z" fill="#084D36"/>
<path d="M4.33366 46.042H5.41699V47.1253H4.33366V46.042Z" fill="#084D36"/>
<path d="M1.08303 49.2917L11.2333 48.2235L12.6996 49.2012C12.7186 49.2137 12.7375 49.225 12.7576 49.2348L13.8409 49.7765L14.3257 48.8074L13.2727 48.2809L12.3974 47.6975L14.6247 46.5833H18.1921L20.2001 48.5913C20.3014 48.6931 20.4395 48.75 20.583 48.75H21.6664V47.6667H20.8073L19.1427 46.0021L21.1247 44.4167H24.9164V40.0698C15.5948 39.7827 8.1247 32.1414 8.1247 22.75C17.5161 22.75 25.1574 30.2201 25.4445 39.5417H26.0138C26.3003 30.2201 33.9416 22.75 43.333 22.75C43.333 32.1414 35.8629 39.7827 26.5414 40.0698V44.4167H30.8747L32.77 45.9328L31.658 46.6743C31.5794 46.7269 31.516 46.7984 31.4738 46.8829L31.0816 47.6667H29.2497V48.75H31.4164C31.6217 48.75 31.8091 48.6341 31.9012 48.4505L32.3784 47.4955L33.7472 46.5833H37.3747L40.1323 47.7652L38.6747 48.8583L39.3247 49.725L41.3235 48.2257L50.9164 49.2917L50.9326 50.9167H1.08303V49.2917ZM10.1327 23.992L9.36674 24.758L22.9084 38.2996L23.6743 37.5337L10.1327 23.992ZM27.999 38.3083L40.4573 26.3916L39.7082 25.6089L27.2499 37.5256L27.999 38.3083Z" fill="#084D36"/>
<path d="M34.1253 6.44497V10.2913C34.1253 10.462 34.0452 10.6223 33.9087 10.7247L29.792 13.8122V25.9997H28.7087V13.5413C28.7087 13.3707 28.7888 13.2104 28.9253 13.108L33.042 10.0205V6.44497C31.8059 6.19417 30.8753 5.10163 30.8753 3.79134C30.8753 2.2958 32.0881 1.08301 33.5837 1.08301C35.0792 1.08301 36.292 2.2958 36.292 3.79134C36.292 5.10163 35.3614 6.19417 34.1253 6.44497ZM33.5837 3.24967C33.2847 3.24967 33.042 3.49234 33.042 3.79134C33.042 4.09034 33.2847 4.33301 33.5837 4.33301C33.8827 4.33301 34.1253 4.09034 34.1253 3.79134C34.1253 3.49234 33.8827 3.24967 33.5837 3.24967Z" fill="#084D36"/>
<path d="M21.6667 13.2895L18.6577 11.2837C18.5071 11.1829 18.4167 11.0139 18.4167 10.833V6.44497C17.1806 6.19417 16.25 5.10163 16.25 3.79134C16.25 2.2958 17.4628 1.08301 18.9583 1.08301C20.4539 1.08301 21.6667 2.2958 21.6667 3.79134C21.6667 5.10163 20.7361 6.19417 19.5 6.44497V10.5432L22.509 12.549C22.6595 12.6498 22.75 12.8188 22.75 12.9997V25.9997H21.6667V13.2895ZM18.9583 3.24967C18.6593 3.24967 18.4167 3.49234 18.4167 3.79134C18.4167 4.09034 18.6593 4.33301 18.9583 4.33301C19.2573 4.33301 19.5 4.09034 19.5 3.79134C19.5 3.49234 19.2573 3.24967 18.9583 3.24967Z" fill="#084D36"/>
<path d="M14.083 13.487V15.7083H18.4163C18.7153 15.7083 18.958 15.951 18.958 16.25V22.75H17.8747V16.7917H13.5413C13.2423 16.7917 12.9997 16.549 12.9997 16.25V13.487C11.7636 13.2362 10.833 12.1436 10.833 10.8333C10.833 9.33779 12.0458 8.125 13.5413 8.125C15.0369 8.125 16.2497 9.33779 16.2497 10.8333C16.2497 12.1436 15.3191 13.2362 14.083 13.487ZM13.5413 10.2917C13.2423 10.2917 12.9997 10.5343 12.9997 10.8333C12.9997 11.1323 13.2423 11.375 13.5413 11.375C13.8403 11.375 14.083 11.1323 14.083 10.8333C14.083 10.5343 13.8403 10.2917 13.5413 10.2917Z" fill="#084D36"/>
<path d="M39.0003 12.945V16.2497C39.0003 16.5487 38.7577 16.7913 38.4587 16.7913H34.1253V22.208H33.042V16.2497C33.042 15.9507 33.2847 15.708 33.5837 15.708H37.917V12.945C36.6809 12.6942 35.7503 11.6016 35.7503 10.2913C35.7503 8.7958 36.9631 7.58301 38.4587 7.58301C39.9542 7.58301 41.167 8.7958 41.167 10.2913C41.167 11.6016 40.2364 12.6942 39.0003 12.945ZM38.4587 9.74967C38.1597 9.74967 37.917 9.99234 37.917 10.2913C37.917 10.5903 38.1597 10.833 38.4587 10.833C38.7577 10.833 39.0003 10.5903 39.0003 10.2913C39.0003 9.99234 38.7577 9.74967 38.4587 9.74967Z" fill="#084D36"/>
<path d="M26.2708 11.32V27.6247H25.1875V11.32C23.9514 11.0692 23.0208 9.97663 23.0208 8.66634C23.0208 7.1708 24.2336 5.95801 25.7292 5.95801C27.2247 5.95801 28.4375 7.1708 28.4375 8.66634C28.4375 9.97663 27.5069 11.0692 26.2708 11.32ZM25.7292 8.12467C25.4302 8.12467 25.1875 8.36734 25.1875 8.66634C25.1875 8.96534 25.4302 9.20801 25.7292 9.20801C26.0282 9.20801 26.2708 8.96534 26.2708 8.66634C26.2708 8.36734 26.0282 8.12467 25.7292 8.12467Z" fill="#084D36"/>
</svg>
