<svg width="32" height="36" viewBox="0 0 32 36" fill="none" xmlns="http://www.w3.org/2000/svg">
<g clip-path="url(#clip0_1550_830)">
<path d="M30.7116 33.4995H29.3277V1.94587C29.3277 1.02867 28.5842 0.285156 27.667 0.285156H4.41699C3.49979 0.285156 2.75628 1.02867 2.75628 1.94587V33.4995H1.37235C0.913785 33.4995 0.541992 33.8712 0.541992 34.3298V35.7137H31.542V34.3298C31.542 33.8712 31.1702 33.4995 30.7116 33.4995ZM9.39913 5.54409C9.39913 5.08552 9.77093 4.71373 10.2295 4.71373H12.9973C13.4559 4.71373 13.8277 5.08552 13.8277 5.54409V8.31194C13.8277 8.77051 13.4559 9.1423 12.9973 9.1423H10.2295C9.77093 9.1423 9.39913 8.77051 9.39913 8.31194V5.54409ZM9.39913 12.1869C9.39913 11.7284 9.77093 11.3566 10.2295 11.3566H12.9973C13.4559 11.3566 13.8277 11.7284 13.8277 12.1869V14.9548C13.8277 15.4134 13.4559 15.7852 12.9973 15.7852H10.2295C9.77093 15.7852 9.39913 15.4134 9.39913 14.9548V12.1869ZM12.9973 22.428H10.2295C9.77093 22.428 9.39913 22.0562 9.39913 21.5977V18.8298C9.39913 18.3712 9.77093 17.9994 10.2295 17.9994H12.9973C13.4559 17.9994 13.8277 18.3712 13.8277 18.8298V21.5977C13.8277 22.0562 13.4559 22.428 12.9973 22.428ZM18.2563 33.4995H13.8277V27.6869C13.8277 27.2284 14.1995 26.8566 14.6581 26.8566H17.4259C17.8845 26.8566 18.2563 27.2284 18.2563 27.6869V33.4995ZM22.6848 21.5977C22.6848 22.0562 22.3131 22.428 21.8545 22.428H19.0866C18.6281 22.428 18.2563 22.0562 18.2563 21.5977V18.8298C18.2563 18.3712 18.6281 17.9994 19.0866 17.9994H21.8545C22.3131 17.9994 22.6848 18.3712 22.6848 18.8298V21.5977ZM22.6848 14.9548C22.6848 15.4134 22.3131 15.7852 21.8545 15.7852H19.0866C18.6281 15.7852 18.2563 15.4134 18.2563 14.9548V12.1869C18.2563 11.7284 18.6281 11.3566 19.0866 11.3566H21.8545C22.3131 11.3566 22.6848 11.7284 22.6848 12.1869V14.9548ZM22.6848 8.31194C22.6848 8.77051 22.3131 9.1423 21.8545 9.1423H19.0866C18.6281 9.1423 18.2563 8.77051 18.2563 8.31194V5.54409C18.2563 5.08552 18.6281 4.71373 19.0866 4.71373H21.8545C22.3131 4.71373 22.6848 5.08552 22.6848 5.54409V8.31194Z" fill="#084D36"/>
</g>
<defs>
<clipPath id="clip0_1550_830">
<rect width="31" height="35.4286" fill="white" transform="translate(0.541992 0.285156)"/>
</clipPath>
</defs>
</svg>
