<svg width="40" height="40" viewBox="0 0 40 40" fill="none" xmlns="http://www.w3.org/2000/svg">
<path d="M4.16602 29.1667C4.16602 28.7246 4.34161 28.3007 4.65417 27.9882C4.96673 27.6756 5.39065 27.5 5.83268 27.5H34.166C34.608 27.5 35.032 27.6756 35.3445 27.9882C35.6571 28.3007 35.8327 28.7246 35.8327 29.1667V35H4.16602V29.1667Z" fill="#084D36" stroke="#084D36" stroke-width="2" stroke-linecap="round" stroke-linejoin="round"/>
<path d="M34.9997 15H28.333L23.333 10L28.333 5H34.9997" stroke="#084D36" stroke-width="2" stroke-linecap="round" stroke-linejoin="round"/>
<path d="M6.66634 13.3337C8.50729 13.3337 9.99968 11.8413 9.99968 10.0003C9.99968 8.15938 8.50729 6.66699 6.66634 6.66699C4.82539 6.66699 3.33301 8.15938 3.33301 10.0003C3.33301 11.8413 4.82539 13.3337 6.66634 13.3337Z" fill="#084D36" stroke="#084D36" stroke-width="2"/>
<path d="M9.99967 10H23.333M8.33301 13.3333L14.9997 27.5" stroke="#084D36" stroke-width="2" stroke-linecap="round" stroke-linejoin="round"/>
</svg>
